# xmcd
#
# Track frame offsets:
# 150
# 20667
# 37865
# 58608
# 79132
# 97038
# 113643
# 130090
# 145753
# 159700
# 178694
# 199304
# 211991
# 234150
# 257065
# 272304
# 283253
#
# Disc length: 3949 seconds
#
#
# Revision: 0
# Processed by: cddbd v1.5.1PL2 Copyright (c) Steve Scherf et al.
# Submitted via: FreeRIP 2.945 
#
DISCID=ed0f6b11
DTITLE=Various Artist - Mustering Blues
DYEAR=2000
DGENRE=Country
TTITLE0=Jeff Lang - Til They Cut Me Down
TTITLE1=Backsliders - Hanoi
TTITLE2=Diesel - One More Time
TTITLE3=Mia Dyson - Roll Me Out
TTITLE4=Doug MacLeod - She Boogy'N
TTITLE5=Lil' Fi - Go Ragged
TTITLE6=Mick Hadley and Atomic Boogie Band - Killin' Floor
TTITLE7=Brian Frazer Trio - One Eye On The Mountain
TTITLE8=Mason Rack Band - Seen Her Before
TTITLE9=Harii Bandhu - What Will Be
TTITLE10=Who Cares
TTITLE11=Peter Steel - Over For Me
TTITLE12=Gibon Martinis - St James Infirmary
TTITLE13=Bluesville Station - You're Right On
TTITLE14=8 Ball Aitken - Yes, I'm Wormed
TTITLE15=Black Dog Bob - Sweet Home Chicago
TTITLE16=Hardly Bizzare - Summertime Blues
EXTD=cd
EXTT0=
EXTT1=
EXTT2=
EXTT3=
EXTT4=
EXTT5=
EXTT6=
EXTT7=
EXTT8=
EXTT9=
EXTT10=
EXTT11=
EXTT12=
EXTT13=
EXTT14=
EXTT15=
EXTT16=
PLAYORDER=
